<?xml version="1.0" encoding="UTF-8"?>
<!DOCTYPE svg PUBLIC "-//W3C//DTD SVG 1.1//EN" "http://www.w3.org/Graphics/SVG/1.1/DTD/svg11.dtd">
<!-- Creator: CorelDRAW 2018 (64 Bit Versão de avaliação) -->
<svg xmlns="http://www.w3.org/2000/svg" xml:space="preserve" width="150px" height="19px" version="1.1" shape-rendering="geometricPrecision" text-rendering="geometricPrecision" image-rendering="optimizeQuality" fill-rule="evenodd" clip-rule="evenodd"
viewBox="0 0 150 19.5"
 xmlns:xlink="http://www.w3.org/1999/xlink">
 <g id="Camada_x0020_1">
  <metadata id="CorelCorpID_0Corel-Layer"/>
  <path fill="#00000" d="M6.74 0l17.96 0c3.7,0 6.73,3.03 6.73,6.74l0 0.3c0,3.71 -3.03,6.74 -6.73,6.74l-17.96 0c-1.27,0 -2.46,-0.36 -3.48,-0.97l0 6.69 -3.26 0 0 -11.25 0.11 0c-0.07,-0.39 -0.11,-0.8 -0.11,-1.21l0 -0.3c0,-3.71 3.03,-6.74 6.74,-6.74zm112.26 19.5l24.26 0c3.71,0 6.74,-2.6 6.74,-5.76l0 0c0,-2.02 -1.19,-3.63 -2.85,-4.7 -0.84,-0.55 -1.72,-0.81 -2.71,-0.81l-0.54 0c-0.21,-0.02 -0.42,-0.03 -0.64,-0.03l-2.18 0 -3.39 0 -3.95 0 -0.28 0 -0.01 0 -0.27 0 -0.01 0 -0.28 0c-1.7,0 -3.47,0 -5.37,0l-0.13 0 -0.15 0 -0.17 0 -0.11 0 -0.22 0 -0.07 0 -0.26 0 -0.02 0 -0.28 0 -0.04 0 -0.24 0 -0.1 0 0 0 -0.01 0 0 0 -0.01 0 0 0 -0.01 0 -0.32 0c-3.95,-0.53 -3.57,-5.08 0.6,-5.08l23.74 -0.06c0.1,0 0.19,0 0.28,0.01l0 -3.07 -24.27 0c-3.7,0 -6.73,2.59 -6.73,5.76l0 0c0,2.02 1.19,3.62 2.84,4.7 0.85,0.55 1.73,0.8 2.72,0.81l0.54 0c0.21,0.02 0.42,0.02 0.63,0.02l2.19 0 3.39 0 3.95 0 0.27 0 0.01 0 0.28 0 0.01 0 0.28 0c1.7,0 3.47,0 5.37,0l0.13 0 0.15 0 0.17 0 0.11 0 0.22 0 0.07 0 0.26 0 0.02 0 0.28 0 0.04 0 0.24 0 0.1 0 0 0 0.01 0 0 0 0.01 0 0 0 0.01 0 0.32 0c3.95,0.54 3.57,5.09 -0.6,5.09l-23.74 0.06c-0.1,0 -0.19,-0.01 -0.28,-0.01l0 3.07zm-38.29 0l24.27 0c3.7,0 6.73,-2.6 6.73,-5.76l0 0c0,-2.02 -1.19,-3.63 -2.84,-4.7 -0.85,-0.55 -1.73,-0.81 -2.72,-0.81l-0.53 0c-0.22,-0.02 -0.43,-0.03 -0.64,-0.03l-2.19 0 -3.39 0 -3.95 0 -0.27 0 -0.01 0 -0.28 0 -0.01 0 -0.28 0c-1.7,0 -3.47,0 -5.37,0l-0.13 0 -0.15 0 -0.17 0 -0.11 0 -0.22 0 -0.06 0 -0.27 0 -0.02 0 -0.28 0 -0.04 0 -0.24 0 -0.09 0 -0.01 0 -0.01 0 0 0 -0.01 0 0 0 -0.01 0 -0.32 0c-3.95,-0.53 -3.57,-5.08 0.6,-5.08l23.74 -0.06c0.1,0 0.19,0 0.28,0.01l0 -3.07 -24.26 0c-3.71,0 -6.74,2.59 -6.74,5.76l0 0c0,2.02 1.19,3.62 2.85,4.7 0.84,0.55 1.72,0.8 2.71,0.81l0.54 0c0.21,0.02 0.42,0.02 0.64,0.02l2.18 0 3.39 0 3.95 0 0.28 0 0.01 0 0.27 0 0.01 0 0.28 0c1.7,0 3.47,0 5.37,0l0.13 0 0.15 0 0.17 0 0.11 0 0.22 0 0.07 0 0.26 0 0.02 0 0.28 0 0.04 0 0.24 0 0.1 0 0 0 0.01 0 0 0 0.01 0 0 0 0.01 0 0.32 0c3.95,0.54 3.57,5.09 -0.6,5.09l-23.74 0.06c-0.09,0 -0.19,-0.01 -0.28,-0.01l0 3.07zm-40.15 -13.13l-0.01 0 0 0.08c-0.01,0.14 -0.01,0.28 -0.01,0.41l0 0c0,0.14 0,0.28 0.01,0.42l0 12.22 3.27 0 0 -6.75c1.01,0.62 2.19,0.98 3.46,0.98l17.96 0c1.27,0 2.45,-0.36 3.47,-0.99l0 6.76 3.26 0 0 -12.64 0 0 0 -0.49 -0.01 0c-0.25,-3.54 -3.18,-6.37 -6.72,-6.37l-17.96 0c-3.55,0 -6.47,2.83 -6.72,6.37zm24.45 -3.45l-17.49 0.07c-2.04,0.01 -3.7,1.7 -3.7,3.77l0 0.34c0,2.08 1.66,3.78 3.7,3.77l17.49 -0.07c2.03,0 3.7,-1.69 3.7,-3.77l0 -0.33c0,-2.08 -1.67,-3.78 -3.7,-3.78zm-58.05 -0.05l17.5 0.07c2.03,0.01 3.7,1.66 3.7,3.7l0 0.63c0,2.04 -1.67,3.71 -3.7,3.7l-17.5 -0.06c-2.03,-0.01 -3.7,-1.67 -3.7,-3.7l0 -0.64c0,-2.03 1.67,-3.71 3.7,-3.7z"/>
 </g>
</svg>
