<?xml version="1.0" encoding="UTF-8"?><svg xmlns="http://www.w3.org/2000/svg" xmlns:xlink="http://www.w3.org/1999/xlink" height="1280.0" preserveAspectRatio="xMidYMid meet" version="1.0" viewBox="0.0 0.0 637.2 1280.0" width="637.2" zoomAndPan="magnify"><g data-name="Слой 2"><g data-name="Слой 1" id="change1_1"><path d="M632.62,334V96.48C632.62,43.41,589.2,0,536.14,0H101C47.93,0,4.52,43.41,4.52,96.48v142.2A8.57,8.57,0,0,0,0,246.22v23.37a8.57,8.57,0,0,0,4.52,7.54v66A8.57,8.57,0,0,0,0,350.66v60.42a8.56,8.56,0,0,0,4.52,7.53v30.14A8.57,8.57,0,0,0,0,456.28V516.7a8.57,8.57,0,0,0,4.52,7.54v659.28c0,53.07,43.41,96.48,96.47,96.48H536.14c53.06,0,96.48-43.41,96.48-96.48V467.69a8.59,8.59,0,0,0,4.56-7.56V341.54A8.59,8.59,0,0,0,632.62,334Zm-11.3,851.89A85.36,85.36,0,0,1,536.21,1271H101a85.36,85.36,0,0,1-85.11-85.11V94.9A85.36,85.36,0,0,1,101,9.79H536.21A85.36,85.36,0,0,1,621.32,94.9ZM174.27,0V38.91a27.3,27.3,0,0,0,27.22,27.23H435.68a27.31,27.31,0,0,0,27.23-27.23V0ZM339.68,39.27H262.76a4.85,4.85,0,0,1,0-9.7h76.92a4.85,4.85,0,0,1,0,9.7ZM371,42.73a8.57,8.57,0,0,1-8.81-8.31,8.82,8.82,0,0,1,17.61,0A8.57,8.57,0,0,1,371,42.73Z" fill="#1d1d1b"/></g></g></svg>