<?xml version="1.0" encoding="UTF-8"?>
<!DOCTYPE svg PUBLIC "-//W3C//DTD SVG 1.1//EN" "http://www.w3.org/Graphics/SVG/1.1/DTD/svg11.dtd">
<!-- Creator: CorelDRAW 2018 (64 Bit Versão de avaliação) -->
<svg xmlns="http://www.w3.org/2000/svg" xml:space="preserve" width="50px" height="50px" version="1.1" shape-rendering="geometricPrecision" text-rendering="geometricPrecision" image-rendering="optimizeQuality" fill-rule="evenodd" clip-rule="evenodd"
viewBox="0 0 6.23 6.23"
 xmlns:xlink="http://www.w3.org/1999/xlink">
 <g id="Camada_x0020_1">
  <metadata id="CorelCorpID_0Corel-Layer"/>
  <rect fill="none" width="6.23" height="6.23"/>
  <g id="_2890734792256">
   <path fill="black" d="M0 4.43c0.02,0.21 0.21,0.17 0.32,0.17l5.51 0c0.08,0 0.23,0.02 0.29,-0.01 0.16,-0.08 0.15,-0.4 -0.06,-0.42 -0.09,-0.01 -0.21,-0.01 -0.3,-0.01l-5.37 0c-0.07,0 -0.23,-0.01 -0.28,0.02 -0.08,0.03 -0.12,0.12 -0.11,0.25z"/>
   <path fill="black" d="M0.16 1.63c-0.08,0.01 -0.15,0.06 -0.16,0.18 -0.01,0.13 0.03,0.21 0.11,0.24 0.06,0.03 0.21,0.02 0.29,0.02l5.52 0c0.04,0 0.1,0 0.15,-0.01 0.2,-0.02 0.21,-0.35 0.05,-0.42 -0.06,-0.02 -0.22,-0.01 -0.29,-0.01l-5.52 0c-0.04,0 -0.11,-0.01 -0.15,0z"/>
  </g>
 </g>
</svg>
